<?xml version="1.0" encoding="UTF-8" standalone="no"?>
<!DOCTYPE svg PUBLIC "-//W3C//DTD SVG 1.1//EN"
 "http://www.w3.org/Graphics/SVG/1.1/DTD/svg11.dtd">
<!-- Generated by graphviz version 2.40.1 (20161225.0304)
 -->
<!-- Title: dependency&#45;cruiser output Pages: 1 -->
<svg width="180pt" height="492pt"
 viewBox="0.00 0.00 180.00 492.00" xmlns="http://www.w3.org/2000/svg" xmlns:xlink="http://www.w3.org/1999/xlink">
<g id="graph0" class="graph" transform="scale(1 1) rotate(0) translate(4 488)">
<title>dependency&#45;cruiser output</title>
<polygon fill="#ffffff" stroke="transparent" points="-4,4 -4,-488 176,-488 176,4 -4,4"/>
<g id="clust1" class="cluster">
<title>cluster_lib</title>
<path fill="#ffffff" stroke="#000000" stroke-width="2" d="M77.5,-196C77.5,-196 148.5,-196 148.5,-196 154.5,-196 160.5,-202 160.5,-208 160.5,-208 160.5,-356 160.5,-356 160.5,-362 154.5,-368 148.5,-368 148.5,-368 77.5,-368 77.5,-368 71.5,-368 65.5,-362 65.5,-356 65.5,-356 65.5,-208 65.5,-208 65.5,-202 71.5,-196 77.5,-196"/>
<text text-anchor="middle" x="113" y="-356.8" font-family="Helvetica,sans-Serif" font-weight="bold" font-size="9.00" fill="#000000">lib</text>
</g>
<g id="clust2" class="cluster">
<title>cluster_lib/util</title>
<path fill="#ffffff" stroke="#000000" stroke-width="2" d="M90,-290C90,-290 136,-290 136,-290 142,-290 148,-296 148,-302 148,-302 148,-330 148,-330 148,-336 142,-342 136,-342 136,-342 90,-342 90,-342 84,-342 78,-336 78,-330 78,-330 78,-302 78,-302 78,-296 84,-290 90,-290"/>
<text text-anchor="middle" x="113" y="-330.8" font-family="Helvetica,sans-Serif" font-weight="bold" font-size="9.00" fill="#000000">util</text>
</g>
<g id="clust3" class="cluster">
<title>cluster_node_modules</title>
<path fill="#ffffff" stroke="#000000" stroke-width="2" d="M74,-8C74,-8 152,-8 152,-8 158,-8 164,-14 164,-20 164,-20 164,-176 164,-176 164,-182 158,-188 152,-188 152,-188 74,-188 74,-188 68,-188 62,-182 62,-176 62,-176 62,-20 62,-20 62,-14 68,-8 74,-8"/>
<text text-anchor="middle" x="113" y="-176.8" font-family="Helvetica,sans-Serif" font-weight="bold" font-size="9.00" fill="#000000">node_modules</text>
</g>
<g id="clust4" class="cluster">
<title>cluster_node_modules/fs&#45;extra</title>
<path fill="#ffffff" stroke="#000000" stroke-width="2" d="M82,-76C82,-76 144,-76 144,-76 150,-76 156,-82 156,-88 156,-88 156,-150 156,-150 156,-156 150,-162 144,-162 144,-162 82,-162 82,-162 76,-162 70,-156 70,-150 70,-150 70,-88 70,-88 70,-82 76,-76 82,-76"/>
<text text-anchor="middle" x="113" y="-150.8" font-family="Helvetica,sans-Serif" font-weight="bold" font-size="9.00" fill="#000000">fs&#45;extra</text>
</g>
<g id="clust5" class="cluster">
<title>cluster_node_modules/fs&#45;extra/lib</title>
<path fill="#ffffff" stroke="#000000" stroke-width="2" d="M90,-84C90,-84 136,-84 136,-84 142,-84 148,-90 148,-96 148,-96 148,-124 148,-124 148,-130 142,-136 136,-136 136,-136 90,-136 90,-136 84,-136 78,-130 78,-124 78,-124 78,-96 78,-96 78,-90 84,-84 90,-84"/>
<text text-anchor="middle" x="113" y="-124.8" font-family="Helvetica,sans-Serif" font-weight="bold" font-size="9.00" fill="#000000">lib</text>
</g>
<g id="clust6" class="cluster">
<title>cluster_node_modules/syswide&#45;cas</title>
<path fill="#ffffff" stroke="#000000" stroke-width="2" d="M90,-16C90,-16 137,-16 137,-16 143,-16 149,-22 149,-28 149,-28 149,-56 149,-56 149,-62 143,-68 137,-68 137,-68 90,-68 90,-68 84,-68 78,-62 78,-56 78,-56 78,-28 78,-28 78,-22 84,-16 90,-16"/>
<text text-anchor="middle" x="113.5" y="-56.8" font-family="Helvetica,sans-Serif" font-weight="bold" font-size="9.00" fill="#000000">syswide&#45;cas</text>
</g>
<!-- child_process -->
<g id="node1" class="node">
<title>child_process</title>
<path fill="#ffffcc" stroke="#c0c0c0" d="M144,-484C144,-484 82,-484 82,-484 79,-484 76,-481 76,-478 76,-478 76,-472 76,-472 76,-469 79,-466 82,-466 82,-466 144,-466 144,-466 147,-466 150,-469 150,-472 150,-472 150,-478 150,-478 150,-481 147,-484 144,-484"/>
<text text-anchor="middle" x="113" y="-472.8" font-family="Helvetica,sans-Serif" font-size="9.00" fill="#c0c0c0">child_process</text>
</g>
<!-- https -->
<g id="node2" class="node">
<title>https</title>
<path fill="#ffffcc" stroke="#c0c0c0" d="M134,-454C134,-454 92,-454 92,-454 89,-454 86,-451 86,-448 86,-448 86,-442 86,-442 86,-439 89,-436 92,-436 92,-436 134,-436 134,-436 137,-436 140,-439 140,-442 140,-442 140,-448 140,-448 140,-451 137,-454 134,-454"/>
<text text-anchor="middle" x="113" y="-442.8" font-family="Helvetica,sans-Serif" font-size="9.00" fill="#c0c0c0">https</text>
</g>
<!-- index.js -->
<g id="node3" class="node">
<title>index.js</title>
<g id="a_node3"><a xlink:href="index.js" xlink:title="index.js">
<path fill="#ffffcc" stroke="#000000" d="M48,-299C48,-299 6,-299 6,-299 3,-299 0,-296 0,-293 0,-293 0,-287 0,-287 0,-284 3,-281 6,-281 6,-281 48,-281 48,-281 51,-281 54,-284 54,-287 54,-287 54,-293 54,-293 54,-296 51,-299 48,-299"/>
<text text-anchor="middle" x="27" y="-287.8" font-family="Helvetica,sans-Serif" font-size="9.00" fill="#000000">index.js</text>
</a>
</g>
</g>
<!-- index.js&#45;&gt;child_process -->
<g id="edge5" class="edge">
<title>index.js&#45;&gt;child_process</title>
<path fill="none" stroke="#000000" stroke-dasharray="5,2" stroke-opacity="0.200000" d="M27.6824,-299.4003C30.1964,-331.4913 39.9628,-436.0533 62,-460 64.3827,-462.5891 67.1868,-464.7398 70.234,-466.5251"/>
<polygon fill="#000000" fill-opacity="0.200000" stroke="#000000" stroke-opacity="0.200000" points="69.6349,-468.5723 75.9429,-469.36 71.5029,-464.8105 69.6349,-468.5723"/>
</g>
<!-- index.js&#45;&gt;https -->
<g id="edge7" class="edge">
<title>index.js&#45;&gt;https</title>
<path fill="none" stroke="#000000" stroke-dasharray="5,2" stroke-opacity="0.200000" d="M28.1167,-299.2875C31.6761,-327.403 43.6111,-410.8398 62,-430 66.795,-434.9961 73.1602,-438.3521 79.7634,-440.6002"/>
<polygon fill="#000000" fill-opacity="0.200000" stroke="#000000" stroke-opacity="0.200000" points="79.5086,-442.7129 85.8562,-442.3686 80.6794,-438.6793 79.5086,-442.7129"/>
</g>
<!-- lib/HttpServer.js -->
<g id="node4" class="node">
<title>lib/HttpServer.js</title>
<g id="a_node4"><a xlink:href="lib/HttpServer.js" xlink:title="HttpServer.js">
<path fill="#ffffcc" stroke="#000000" d="M141.5,-282C141.5,-282 84.5,-282 84.5,-282 81.5,-282 78.5,-279 78.5,-276 78.5,-276 78.5,-270 78.5,-270 78.5,-267 81.5,-264 84.5,-264 84.5,-264 141.5,-264 141.5,-264 144.5,-264 147.5,-267 147.5,-270 147.5,-270 147.5,-276 147.5,-276 147.5,-279 144.5,-282 141.5,-282"/>
<text text-anchor="middle" x="113" y="-270.8" font-family="Helvetica,sans-Serif" font-size="9.00" fill="#000000">HttpServer.js</text>
</a>
</g>
</g>
<!-- index.js&#45;&gt;lib/HttpServer.js -->
<g id="edge1" class="edge">
<title>index.js&#45;&gt;lib/HttpServer.js</title>
<path fill="none" stroke="#000000" stroke-width="2" stroke-opacity="0.200000" d="M54.2109,-284.6211C59.9685,-283.483 66.1645,-282.2582 72.2981,-281.0457"/>
<polygon fill="#000000" fill-opacity="0.200000" stroke="#000000" stroke-width="2" stroke-opacity="0.200000" points="72.9134,-283.0648 78.3923,-279.8411 72.0989,-278.9445 72.9134,-283.0648"/>
</g>
<!-- lib/installCertutil.js -->
<g id="node5" class="node">
<title>lib/installCertutil.js</title>
<g id="a_node5"><a xlink:href="lib/installCertutil.js" xlink:title="installCertutil.js">
<path fill="#ffffcc" stroke="#000000" d="M146.5,-252C146.5,-252 79.5,-252 79.5,-252 76.5,-252 73.5,-249 73.5,-246 73.5,-246 73.5,-240 73.5,-240 73.5,-237 76.5,-234 79.5,-234 79.5,-234 146.5,-234 146.5,-234 149.5,-234 152.5,-237 152.5,-240 152.5,-240 152.5,-246 152.5,-246 152.5,-249 149.5,-252 146.5,-252"/>
<text text-anchor="middle" x="113" y="-240.8" font-family="Helvetica,sans-Serif" font-size="9.00" fill="#000000">installCertutil.js</text>
</a>
</g>
</g>
<!-- index.js&#45;&gt;lib/installCertutil.js -->
<g id="edge2" class="edge">
<title>index.js&#45;&gt;lib/installCertutil.js</title>
<path fill="none" stroke="#000000" stroke-width="2" stroke-opacity="0.200000" d="M34.7643,-280.9146C41.3459,-273.7445 51.3854,-263.9842 62,-258 64.3064,-256.6998 66.7362,-255.5026 69.233,-254.4016"/>
<polygon fill="#000000" fill-opacity="0.200000" stroke="#000000" stroke-width="2" stroke-opacity="0.200000" points="70.3803,-256.2028 75.1535,-252.0044 68.804,-252.3098 70.3803,-256.2028"/>
</g>
<!-- lib/mkcert.js -->
<g id="node6" class="node">
<title>lib/mkcert.js</title>
<g id="a_node6"><a xlink:href="lib/mkcert.js" xlink:title="mkcert.js">
<path fill="#ffffcc" stroke="#000000" d="M134,-222C134,-222 92,-222 92,-222 89,-222 86,-219 86,-216 86,-216 86,-210 86,-210 86,-207 89,-204 92,-204 92,-204 134,-204 134,-204 137,-204 140,-207 140,-210 140,-210 140,-216 140,-216 140,-219 137,-222 134,-222"/>
<text text-anchor="middle" x="113" y="-210.8" font-family="Helvetica,sans-Serif" font-size="9.00" fill="#000000">mkcert.js</text>
</a>
</g>
</g>
<!-- index.js&#45;&gt;lib/mkcert.js -->
<g id="edge3" class="edge">
<title>index.js&#45;&gt;lib/mkcert.js</title>
<path fill="none" stroke="#000000" stroke-width="2" stroke-opacity="0.200000" d="M29.6678,-280.9617C34.1276,-267.428 44.3874,-241.9957 62,-228 67.2002,-223.8677 73.5072,-220.8733 79.8878,-218.7037"/>
<polygon fill="#000000" fill-opacity="0.200000" stroke="#000000" stroke-width="2" stroke-opacity="0.200000" points="80.6035,-220.6812 85.7385,-216.934 79.3875,-216.6611 80.6035,-220.6812"/>
</g>
<!-- lib/util/log.js -->
<g id="node7" class="node">
<title>lib/util/log.js</title>
<g id="a_node7"><a xlink:href="lib/util/log.js" xlink:title="log.js">
<path fill="#ffffcc" stroke="#000000" d="M134,-316C134,-316 92,-316 92,-316 89,-316 86,-313 86,-310 86,-310 86,-304 86,-304 86,-301 89,-298 92,-298 92,-298 134,-298 134,-298 137,-298 140,-301 140,-304 140,-304 140,-310 140,-310 140,-313 137,-316 134,-316"/>
<text text-anchor="middle" x="113" y="-304.8" font-family="Helvetica,sans-Serif" font-size="9.00" fill="#000000">log.js</text>
</a>
</g>
</g>
<!-- index.js&#45;&gt;lib/util/log.js -->
<g id="edge4" class="edge">
<title>index.js&#45;&gt;lib/util/log.js</title>
<path fill="none" stroke="#000000" stroke-width="2" stroke-opacity="0.200000" d="M54.2109,-295.3789C62.289,-296.9757 71.2304,-298.7432 79.6511,-300.4078"/>
<polygon fill="#000000" fill-opacity="0.200000" stroke="#000000" stroke-width="2" stroke-opacity="0.200000" points="79.6727,-302.5526 85.9661,-301.6561 80.4872,-298.4323 79.6727,-302.5526"/>
</g>
<!-- node_modules/fs&#45;extra/lib/index.js -->
<g id="node8" class="node">
<title>node_modules/fs&#45;extra/lib/index.js</title>
<g id="a_node8"><a xlink:href="node_modules/fs-extra/lib/index.js" xlink:title="index.js">
<path fill="#c40b0a" fill-opacity="0.101961" stroke="#000000" d="M134,-110C134,-110 92,-110 92,-110 89,-110 86,-107 86,-104 86,-104 86,-98 86,-98 86,-95 89,-92 92,-92 92,-92 134,-92 134,-92 137,-92 140,-95 140,-98 140,-98 140,-104 140,-104 140,-107 137,-110 134,-110"/>
<text text-anchor="middle" x="113" y="-98.8" font-family="Helvetica,sans-Serif" font-size="9.00" fill="#c40b0a">index.js</text>
</a>
</g>
</g>
<!-- index.js&#45;&gt;node_modules/fs&#45;extra/lib/index.js -->
<g id="edge6" class="edge">
<title>index.js&#45;&gt;node_modules/fs&#45;extra/lib/index.js</title>
<path fill="none" stroke="#000000" stroke-opacity="0.200000" d="M29.7203,-280.9839C35.0757,-263.6172 47.7144,-224.4614 62,-193 74.8208,-164.7644 93.0719,-133.5092 103.9086,-115.6629"/>
<polygon fill="#000000" fill-opacity="0.200000" stroke="#000000" stroke-opacity="0.200000" points="105.9421,-116.3629 107.2809,-110.1485 102.359,-114.1716 105.9421,-116.3629"/>
</g>
<!-- os -->
<g id="node9" class="node">
<title>os</title>
<path fill="#ffffcc" stroke="#c0c0c0" d="M134,-424C134,-424 92,-424 92,-424 89,-424 86,-421 86,-418 86,-418 86,-412 86,-412 86,-409 89,-406 92,-406 92,-406 134,-406 134,-406 137,-406 140,-409 140,-412 140,-412 140,-418 140,-418 140,-421 137,-424 134,-424"/>
<text text-anchor="middle" x="113" y="-412.8" font-family="Helvetica,sans-Serif" font-size="9.00" fill="#c0c0c0">os</text>
</g>
<!-- index.js&#45;&gt;os -->
<g id="edge8" class="edge">
<title>index.js&#45;&gt;os</title>
<path fill="none" stroke="#000000" stroke-dasharray="5,2" stroke-opacity="0.200000" d="M28.7952,-299.2975C33.5728,-323.1341 47.2443,-385.5655 62,-400 66.8996,-404.793 73.2485,-408.0674 79.7935,-410.3011"/>
<polygon fill="#000000" fill-opacity="0.200000" stroke="#000000" stroke-opacity="0.200000" points="79.4747,-412.3961 85.8234,-412.0734 80.6591,-408.3666 79.4747,-412.3961"/>
</g>
<!-- path -->
<g id="node10" class="node">
<title>path</title>
<path fill="#ffffcc" stroke="#c0c0c0" d="M134,-394C134,-394 92,-394 92,-394 89,-394 86,-391 86,-388 86,-388 86,-382 86,-382 86,-379 89,-376 92,-376 92,-376 134,-376 134,-376 137,-376 140,-379 140,-382 140,-382 140,-388 140,-388 140,-391 137,-394 134,-394"/>
<text text-anchor="middle" x="113" y="-382.8" font-family="Helvetica,sans-Serif" font-size="9.00" fill="#c0c0c0">path</text>
</g>
<!-- index.js&#45;&gt;path -->
<g id="edge9" class="edge">
<title>index.js&#45;&gt;path</title>
<path fill="none" stroke="#000000" stroke-dasharray="5,2" stroke-opacity="0.200000" d="M31.6098,-299.2194C37.622,-310.7054 48.9282,-330.5746 62,-345 71.3942,-355.367 83.6927,-365.0989 93.8587,-372.3674"/>
<polygon fill="#000000" fill-opacity="0.200000" stroke="#000000" stroke-opacity="0.200000" points="92.8342,-374.2136 98.9539,-375.9341 95.2428,-370.7728 92.8342,-374.2136"/>
</g>
<!-- node_modules/syswide&#45;cas/index.js -->
<g id="node11" class="node">
<title>node_modules/syswide&#45;cas/index.js</title>
<g id="a_node11"><a xlink:href="node_modules/syswide-cas/index.js" xlink:title="index.js">
<path fill="#c40b0a" fill-opacity="0.101961" stroke="#000000" d="M134,-42C134,-42 92,-42 92,-42 89,-42 86,-39 86,-36 86,-36 86,-30 86,-30 86,-27 89,-24 92,-24 92,-24 134,-24 134,-24 137,-24 140,-27 140,-30 140,-30 140,-36 140,-36 140,-39 137,-42 134,-42"/>
<text text-anchor="middle" x="113" y="-30.8" font-family="Helvetica,sans-Serif" font-size="9.00" fill="#c40b0a">index.js</text>
</a>
</g>
</g>
<!-- index.js&#45;&gt;node_modules/syswide&#45;cas/index.js -->
<g id="edge10" class="edge">
<title>index.js&#45;&gt;node_modules/syswide&#45;cas/index.js</title>
<path fill="none" stroke="#000000" stroke-opacity="0.200000" d="M27.7501,-280.8807C30.7869,-245.3901 42.9254,-116.6917 62,-81 69.5542,-66.8649 82.85,-54.5604 93.9721,-45.9489"/>
<polygon fill="#000000" fill-opacity="0.200000" stroke="#000000" stroke-opacity="0.200000" points="95.3564,-47.5358 98.9009,-42.2587 92.8392,-44.1737 95.3564,-47.5358"/>
</g>
</g>
</svg>
