<?xml version="1.0" encoding="UTF-8" standalone="no"?>
<!DOCTYPE svg PUBLIC "-//W3C//DTD SVG 1.1//EN"
 "http://www.w3.org/Graphics/SVG/1.1/DTD/svg11.dtd">
<!-- Generated by graphviz version 2.40.1 (20161225.0304)
 -->
<!-- Title: dependency&#45;cruiser output Pages: 1 -->
<svg width="180pt" height="282pt"
 viewBox="0.00 0.00 180.00 282.00" xmlns="http://www.w3.org/2000/svg" xmlns:xlink="http://www.w3.org/1999/xlink">
<g id="graph0" class="graph" transform="scale(1 1) rotate(0) translate(4 278)">
<title>dependency&#45;cruiser output</title>
<polygon fill="#ffffff" stroke="transparent" points="-4,4 -4,-278 176,-278 176,4 -4,4"/>
<g id="clust1" class="cluster">
<title>cluster_node_modules</title>
<path fill="#ffffff" stroke="#000000" stroke-width="2" d="M74,-8C74,-8 152,-8 152,-8 158,-8 164,-14 164,-20 164,-20 164,-176 164,-176 164,-182 158,-188 152,-188 152,-188 74,-188 74,-188 68,-188 62,-182 62,-176 62,-176 62,-20 62,-20 62,-14 68,-8 74,-8"/>
<text text-anchor="middle" x="113" y="-176.8" font-family="Helvetica,sans-Serif" font-weight="bold" font-size="9.00" fill="#000000">node_modules</text>
</g>
<g id="clust2" class="cluster">
<title>cluster_node_modules/fs&#45;extra</title>
<path fill="#ffffff" stroke="#000000" stroke-width="2" d="M82,-76C82,-76 144,-76 144,-76 150,-76 156,-82 156,-88 156,-88 156,-150 156,-150 156,-156 150,-162 144,-162 144,-162 82,-162 82,-162 76,-162 70,-156 70,-150 70,-150 70,-88 70,-88 70,-82 76,-76 82,-76"/>
<text text-anchor="middle" x="113" y="-150.8" font-family="Helvetica,sans-Serif" font-weight="bold" font-size="9.00" fill="#000000">fs&#45;extra</text>
</g>
<g id="clust3" class="cluster">
<title>cluster_node_modules/fs&#45;extra/lib</title>
<path fill="#ffffff" stroke="#000000" stroke-width="2" d="M90,-84C90,-84 136,-84 136,-84 142,-84 148,-90 148,-96 148,-96 148,-124 148,-124 148,-130 142,-136 136,-136 136,-136 90,-136 90,-136 84,-136 78,-130 78,-124 78,-124 78,-96 78,-96 78,-90 84,-84 90,-84"/>
<text text-anchor="middle" x="113" y="-124.8" font-family="Helvetica,sans-Serif" font-weight="bold" font-size="9.00" fill="#000000">lib</text>
</g>
<g id="clust4" class="cluster">
<title>cluster_node_modules/syswide&#45;cas</title>
<path fill="#ffffff" stroke="#000000" stroke-width="2" d="M90,-16C90,-16 137,-16 137,-16 143,-16 149,-22 149,-28 149,-28 149,-56 149,-56 149,-62 143,-68 137,-68 137,-68 90,-68 90,-68 84,-68 78,-62 78,-56 78,-56 78,-28 78,-28 78,-22 84,-16 90,-16"/>
<text text-anchor="middle" x="113.5" y="-56.8" font-family="Helvetica,sans-Serif" font-weight="bold" font-size="9.00" fill="#000000">syswide&#45;cas</text>
</g>
<!-- child_process -->
<g id="node1" class="node">
<title>child_process</title>
<path fill="#ffffcc" stroke="#c0c0c0" d="M144,-274C144,-274 82,-274 82,-274 79,-274 76,-271 76,-268 76,-268 76,-262 76,-262 76,-259 79,-256 82,-256 82,-256 144,-256 144,-256 147,-256 150,-259 150,-262 150,-262 150,-268 150,-268 150,-271 147,-274 144,-274"/>
<text text-anchor="middle" x="113" y="-262.8" font-family="Helvetica,sans-Serif" font-size="9.00" fill="#c0c0c0">child_process</text>
</g>
<!-- index.js -->
<g id="node2" class="node">
<title>index.js</title>
<g id="a_node2"><a xlink:href="index.js" xlink:title="index.js">
<path fill="#ffffcc" stroke="#000000" d="M48,-214C48,-214 6,-214 6,-214 3,-214 0,-211 0,-208 0,-208 0,-202 0,-202 0,-199 3,-196 6,-196 6,-196 48,-196 48,-196 51,-196 54,-199 54,-202 54,-202 54,-208 54,-208 54,-211 51,-214 48,-214"/>
<text text-anchor="middle" x="27" y="-202.8" font-family="Helvetica,sans-Serif" font-size="9.00" fill="#000000">index.js</text>
</a>
</g>
</g>
<!-- index.js&#45;&gt;child_process -->
<g id="edge1" class="edge">
<title>index.js&#45;&gt;child_process</title>
<path fill="none" stroke="#000000" stroke-dasharray="5,2" stroke-opacity="0.200000" d="M31.9009,-214.3456C37.7355,-224.576 48.4206,-240.7516 62,-250 64.491,-251.6966 67.1765,-253.2044 69.9661,-254.544"/>
<polygon fill="#000000" fill-opacity="0.200000" stroke="#000000" stroke-opacity="0.200000" points="69.4686,-256.6163 75.8098,-257.064 71.1318,-252.7597 69.4686,-256.6163"/>
</g>
<!-- node_modules/fs&#45;extra/lib/index.js -->
<g id="node3" class="node">
<title>node_modules/fs&#45;extra/lib/index.js</title>
<g id="a_node3"><a xlink:href="node_modules/fs-extra/lib/index.js" xlink:title="index.js">
<path fill="#c40b0a" fill-opacity="0.101961" stroke="#000000" d="M134,-110C134,-110 92,-110 92,-110 89,-110 86,-107 86,-104 86,-104 86,-98 86,-98 86,-95 89,-92 92,-92 92,-92 134,-92 134,-92 137,-92 140,-95 140,-98 140,-98 140,-104 140,-104 140,-107 137,-110 134,-110"/>
<text text-anchor="middle" x="113" y="-98.8" font-family="Helvetica,sans-Serif" font-size="9.00" fill="#c40b0a">index.js</text>
</a>
</g>
</g>
<!-- index.js&#45;&gt;node_modules/fs&#45;extra/lib/index.js -->
<g id="edge2" class="edge">
<title>index.js&#45;&gt;node_modules/fs&#45;extra/lib/index.js</title>
<path fill="none" stroke="#000000" stroke-dasharray="5,2" stroke-opacity="0.200000" d="M34.6319,-195.7707C49.7787,-177.4537 83.7113,-136.4189 101.5468,-114.8504"/>
<polygon fill="#000000" fill-opacity="0.200000" stroke="#000000" stroke-opacity="0.200000" points="103.3027,-116.0223 105.508,-110.0601 100.066,-113.3458 103.3027,-116.0223"/>
</g>
<!-- os -->
<g id="node4" class="node">
<title>os</title>
<path fill="#ffffcc" stroke="#c0c0c0" d="M134,-244C134,-244 92,-244 92,-244 89,-244 86,-241 86,-238 86,-238 86,-232 86,-232 86,-229 89,-226 92,-226 92,-226 134,-226 134,-226 137,-226 140,-229 140,-232 140,-232 140,-238 140,-238 140,-241 137,-244 134,-244"/>
<text text-anchor="middle" x="113" y="-232.8" font-family="Helvetica,sans-Serif" font-size="9.00" fill="#c0c0c0">os</text>
</g>
<!-- index.js&#45;&gt;os -->
<g id="edge3" class="edge">
<title>index.js&#45;&gt;os</title>
<path fill="none" stroke="#000000" stroke-dasharray="5,2" stroke-opacity="0.200000" d="M47.1954,-214.1384C52.0037,-216.1792 57.1482,-218.2538 62,-220 67.7314,-222.0627 73.8973,-224.0589 79.8929,-225.8857"/>
<polygon fill="#000000" fill-opacity="0.200000" stroke="#000000" stroke-opacity="0.200000" points="79.4591,-227.9477 85.8092,-227.6522 80.6608,-223.9233 79.4591,-227.9477"/>
</g>
<!-- path -->
<g id="node5" class="node">
<title>path</title>
<path fill="#ffffcc" stroke="#c0c0c0" d="M134,-214C134,-214 92,-214 92,-214 89,-214 86,-211 86,-208 86,-208 86,-202 86,-202 86,-199 89,-196 92,-196 92,-196 134,-196 134,-196 137,-196 140,-199 140,-202 140,-202 140,-208 140,-208 140,-211 137,-214 134,-214"/>
<text text-anchor="middle" x="113" y="-202.8" font-family="Helvetica,sans-Serif" font-size="9.00" fill="#c0c0c0">path</text>
</g>
<!-- index.js&#45;&gt;path -->
<g id="edge4" class="edge">
<title>index.js&#45;&gt;path</title>
<path fill="none" stroke="#000000" stroke-dasharray="5,2" stroke-opacity="0.200000" d="M54.2109,-205C62.289,-205 71.2304,-205 79.6511,-205"/>
<polygon fill="#000000" fill-opacity="0.200000" stroke="#000000" stroke-opacity="0.200000" points="79.9661,-207.1001 85.9661,-205 79.966,-202.9001 79.9661,-207.1001"/>
</g>
<!-- node_modules/syswide&#45;cas/index.js -->
<g id="node6" class="node">
<title>node_modules/syswide&#45;cas/index.js</title>
<g id="a_node6"><a xlink:href="node_modules/syswide-cas/index.js" xlink:title="index.js">
<path fill="#c40b0a" fill-opacity="0.101961" stroke="#000000" d="M134,-42C134,-42 92,-42 92,-42 89,-42 86,-39 86,-36 86,-36 86,-30 86,-30 86,-27 89,-24 92,-24 92,-24 134,-24 134,-24 137,-24 140,-27 140,-30 140,-30 140,-36 140,-36 140,-39 137,-42 134,-42"/>
<text text-anchor="middle" x="113" y="-30.8" font-family="Helvetica,sans-Serif" font-size="9.00" fill="#c40b0a">index.js</text>
</a>
</g>
</g>
<!-- index.js&#45;&gt;node_modules/syswide&#45;cas/index.js -->
<g id="edge5" class="edge">
<title>index.js&#45;&gt;node_modules/syswide&#45;cas/index.js</title>
<path fill="none" stroke="#000000" stroke-dasharray="5,2" stroke-opacity="0.200000" d="M27.8861,-195.9321C30.3195,-174.5018 38.5599,-119.6298 62,-81 70.4235,-67.1178 83.9375,-54.6568 94.9385,-45.9121"/>
<polygon fill="#000000" fill-opacity="0.200000" stroke="#000000" stroke-opacity="0.200000" points="96.3252,-47.4945 99.7889,-42.164 93.7571,-44.1711 96.3252,-47.4945"/>
</g>
</g>
</svg>
