<?xml version="1.0" encoding="UTF-8" standalone="no"?>
<!DOCTYPE svg PUBLIC "-//W3C//DTD SVG 1.1//EN"
 "http://www.w3.org/Graphics/SVG/1.1/DTD/svg11.dtd">
<!-- Generated by graphviz version 2.40.1 (20161225.0304)
 -->
<!-- Title: dependency&#45;cruiser output Pages: 1 -->
<svg width="239pt" height="462pt"
 viewBox="0.00 0.00 239.00 462.00" xmlns="http://www.w3.org/2000/svg" xmlns:xlink="http://www.w3.org/1999/xlink">
<g id="graph0" class="graph" transform="scale(1 1) rotate(0) translate(4 458)">
<title>dependency&#45;cruiser output</title>
<polygon fill="#ffffff" stroke="transparent" points="-4,4 -4,-458 235,-458 235,4 -4,4"/>
<g id="clust1" class="cluster">
<title>cluster_lib</title>
<path fill="#ffffff" stroke="#000000" stroke-width="2" d="M74,-196C74,-196 211,-196 211,-196 217,-196 223,-202 223,-208 223,-208 223,-326 223,-326 223,-332 217,-338 211,-338 211,-338 74,-338 74,-338 68,-338 62,-332 62,-326 62,-326 62,-208 62,-208 62,-202 68,-196 74,-196"/>
<text text-anchor="middle" x="142.5" y="-326.8" font-family="Helvetica,sans-Serif" font-weight="bold" font-size="9.00" fill="#000000">lib</text>
</g>
<g id="clust2" class="cluster">
<title>cluster_lib/util</title>
<path fill="#ffffff" stroke="#000000" stroke-width="2" d="M119.5,-260C119.5,-260 165.5,-260 165.5,-260 171.5,-260 177.5,-266 177.5,-272 177.5,-272 177.5,-300 177.5,-300 177.5,-306 171.5,-312 165.5,-312 165.5,-312 119.5,-312 119.5,-312 113.5,-312 107.5,-306 107.5,-300 107.5,-300 107.5,-272 107.5,-272 107.5,-266 113.5,-260 119.5,-260"/>
<text text-anchor="middle" x="142.5" y="-300.8" font-family="Helvetica,sans-Serif" font-weight="bold" font-size="9.00" fill="#000000">util</text>
</g>
<g id="clust3" class="cluster">
<title>cluster_node_modules</title>
<path fill="#ffffff" stroke="#000000" stroke-width="2" d="M103.5,-8C103.5,-8 181.5,-8 181.5,-8 187.5,-8 193.5,-14 193.5,-20 193.5,-20 193.5,-176 193.5,-176 193.5,-182 187.5,-188 181.5,-188 181.5,-188 103.5,-188 103.5,-188 97.5,-188 91.5,-182 91.5,-176 91.5,-176 91.5,-20 91.5,-20 91.5,-14 97.5,-8 103.5,-8"/>
<text text-anchor="middle" x="142.5" y="-176.8" font-family="Helvetica,sans-Serif" font-weight="bold" font-size="9.00" fill="#000000">node_modules</text>
</g>
<g id="clust4" class="cluster">
<title>cluster_node_modules/fs&#45;extra</title>
<path fill="#ffffff" stroke="#000000" stroke-width="2" d="M111.5,-76C111.5,-76 173.5,-76 173.5,-76 179.5,-76 185.5,-82 185.5,-88 185.5,-88 185.5,-150 185.5,-150 185.5,-156 179.5,-162 173.5,-162 173.5,-162 111.5,-162 111.5,-162 105.5,-162 99.5,-156 99.5,-150 99.5,-150 99.5,-88 99.5,-88 99.5,-82 105.5,-76 111.5,-76"/>
<text text-anchor="middle" x="142.5" y="-150.8" font-family="Helvetica,sans-Serif" font-weight="bold" font-size="9.00" fill="#000000">fs&#45;extra</text>
</g>
<g id="clust5" class="cluster">
<title>cluster_node_modules/fs&#45;extra/lib</title>
<path fill="#ffffff" stroke="#000000" stroke-width="2" d="M119.5,-84C119.5,-84 165.5,-84 165.5,-84 171.5,-84 177.5,-90 177.5,-96 177.5,-96 177.5,-124 177.5,-124 177.5,-130 171.5,-136 165.5,-136 165.5,-136 119.5,-136 119.5,-136 113.5,-136 107.5,-130 107.5,-124 107.5,-124 107.5,-96 107.5,-96 107.5,-90 113.5,-84 119.5,-84"/>
<text text-anchor="middle" x="142.5" y="-124.8" font-family="Helvetica,sans-Serif" font-weight="bold" font-size="9.00" fill="#000000">lib</text>
</g>
<g id="clust6" class="cluster">
<title>cluster_node_modules/syswide&#45;cas</title>
<path fill="#ffffff" stroke="#000000" stroke-width="2" d="M119.5,-16C119.5,-16 166.5,-16 166.5,-16 172.5,-16 178.5,-22 178.5,-28 178.5,-28 178.5,-56 178.5,-56 178.5,-62 172.5,-68 166.5,-68 166.5,-68 119.5,-68 119.5,-68 113.5,-68 107.5,-62 107.5,-56 107.5,-56 107.5,-28 107.5,-28 107.5,-22 113.5,-16 119.5,-16"/>
<text text-anchor="middle" x="143" y="-56.8" font-family="Helvetica,sans-Serif" font-weight="bold" font-size="9.00" fill="#000000">syswide&#45;cas</text>
</g>
<!-- child_process -->
<g id="node1" class="node">
<title>child_process</title>
<path fill="#ffffcc" stroke="#c0c0c0" d="M173.5,-454C173.5,-454 111.5,-454 111.5,-454 108.5,-454 105.5,-451 105.5,-448 105.5,-448 105.5,-442 105.5,-442 105.5,-439 108.5,-436 111.5,-436 111.5,-436 173.5,-436 173.5,-436 176.5,-436 179.5,-439 179.5,-442 179.5,-442 179.5,-448 179.5,-448 179.5,-451 176.5,-454 173.5,-454"/>
<text text-anchor="middle" x="142.5" y="-442.8" font-family="Helvetica,sans-Serif" font-size="9.00" fill="#c0c0c0">child_process</text>
</g>
<!-- https -->
<g id="node2" class="node">
<title>https</title>
<path fill="#ffffcc" stroke="#c0c0c0" d="M163.5,-424C163.5,-424 121.5,-424 121.5,-424 118.5,-424 115.5,-421 115.5,-418 115.5,-418 115.5,-412 115.5,-412 115.5,-409 118.5,-406 121.5,-406 121.5,-406 163.5,-406 163.5,-406 166.5,-406 169.5,-409 169.5,-412 169.5,-412 169.5,-418 169.5,-418 169.5,-421 166.5,-424 163.5,-424"/>
<text text-anchor="middle" x="142.5" y="-412.8" font-family="Helvetica,sans-Serif" font-size="9.00" fill="#c0c0c0">https</text>
</g>
<!-- index.js -->
<g id="node3" class="node">
<title>index.js</title>
<g id="a_node3"><a xlink:href="index.js" xlink:title="index.js">
<path fill="#ffffcc" stroke="#000000" d="M48,-286C48,-286 6,-286 6,-286 3,-286 0,-283 0,-280 0,-280 0,-274 0,-274 0,-271 3,-268 6,-268 6,-268 48,-268 48,-268 51,-268 54,-271 54,-274 54,-274 54,-280 54,-280 54,-283 51,-286 48,-286"/>
<text text-anchor="middle" x="27" y="-274.8" font-family="Helvetica,sans-Serif" font-size="9.00" fill="#000000">index.js</text>
</a>
</g>
</g>
<!-- index.js&#45;&gt;child_process -->
<g id="edge4" class="edge">
<title>index.js&#45;&gt;child_process</title>
<path fill="none" stroke="#000000" stroke-dasharray="5,2" stroke-opacity="0.200000" d="M27.8188,-286.3728C30.6414,-316.4591 40.9687,-409.807 62,-430 71.871,-439.4775 85.7,-443.9485 99.1151,-445.838"/>
<polygon fill="#000000" fill-opacity="0.200000" stroke="#000000" stroke-opacity="0.200000" points="99.0351,-447.9424 105.2339,-446.5332 99.5093,-443.7692 99.0351,-447.9424"/>
</g>
<!-- index.js&#45;&gt;https -->
<g id="edge6" class="edge">
<title>index.js&#45;&gt;https</title>
<path fill="none" stroke="#000000" stroke-dasharray="5,2" stroke-opacity="0.200000" d="M28.3718,-286.3354C32.3744,-312.2808 44.8496,-384.3748 62,-400 74.6172,-411.4951 93.106,-415.5073 109.1837,-416.527"/>
<polygon fill="#000000" fill-opacity="0.200000" stroke="#000000" stroke-opacity="0.200000" points="109.3579,-418.6359 115.4395,-416.7854 109.5313,-414.4395 109.3579,-418.6359"/>
</g>
<!-- lib/installCertutil.js -->
<g id="node4" class="node">
<title>lib/installCertutil.js</title>
<g id="a_node4"><a xlink:href="lib/installCertutil.js" xlink:title="installCertutil.js">
<path fill="#ffffcc" stroke="#000000" d="M176,-252C176,-252 109,-252 109,-252 106,-252 103,-249 103,-246 103,-246 103,-240 103,-240 103,-237 106,-234 109,-234 109,-234 176,-234 176,-234 179,-234 182,-237 182,-240 182,-240 182,-246 182,-246 182,-249 179,-252 176,-252"/>
<text text-anchor="middle" x="142.5" y="-240.8" font-family="Helvetica,sans-Serif" font-size="9.00" fill="#000000">installCertutil.js</text>
</a>
</g>
</g>
<!-- index.js&#45;&gt;lib/installCertutil.js -->
<g id="edge1" class="edge">
<title>index.js&#45;&gt;lib/installCertutil.js</title>
<path fill="none" stroke="#000000" stroke-width="2" stroke-opacity="0.200000" d="M40.431,-267.8611C46.732,-263.965 54.4936,-259.7032 62,-257 73.0243,-253.0298 85.3153,-250.1642 96.9078,-248.1036"/>
<polygon fill="#000000" fill-opacity="0.200000" stroke="#000000" stroke-width="2" stroke-opacity="0.200000" points="97.3266,-250.1627 102.8959,-247.0978 96.6309,-246.0207 97.3266,-250.1627"/>
</g>
<!-- lib/mkcertBinaryForThisMachine.js -->
<g id="node5" class="node">
<title>lib/mkcertBinaryForThisMachine.js</title>
<g id="a_node5"><a xlink:href="lib/mkcertBinaryForThisMachine.js" xlink:title="mkcertBinaryForThisMachine.js">
<path fill="#ffffcc" stroke="#000000" d="M209,-222C209,-222 76,-222 76,-222 73,-222 70,-219 70,-216 70,-216 70,-210 70,-210 70,-207 73,-204 76,-204 76,-204 209,-204 209,-204 212,-204 215,-207 215,-210 215,-210 215,-216 215,-216 215,-219 212,-222 209,-222"/>
<text text-anchor="middle" x="142.5" y="-210.8" font-family="Helvetica,sans-Serif" font-size="9.00" fill="#000000">mkcertBinaryForThisMachine.js</text>
</a>
</g>
</g>
<!-- index.js&#45;&gt;lib/mkcertBinaryForThisMachine.js -->
<g id="edge2" class="edge">
<title>index.js&#45;&gt;lib/mkcertBinaryForThisMachine.js</title>
<path fill="none" stroke="#000000" stroke-width="2" stroke-opacity="0.200000" d="M30.9341,-267.7566C36.2492,-256.4611 46.8362,-237.6636 62,-228 63.9107,-226.7823 65.8955,-225.6582 67.9378,-224.6205"/>
<polygon fill="#000000" fill-opacity="0.200000" stroke="#000000" stroke-width="2" stroke-opacity="0.200000" points="68.8972,-226.4907 73.4665,-222.0713 67.1385,-222.6766 68.8972,-226.4907"/>
</g>
<!-- lib/util/log.js -->
<g id="node6" class="node">
<title>lib/util/log.js</title>
<g id="a_node6"><a xlink:href="lib/util/log.js" xlink:title="log.js">
<path fill="#ffffcc" stroke="#000000" d="M163.5,-286C163.5,-286 121.5,-286 121.5,-286 118.5,-286 115.5,-283 115.5,-280 115.5,-280 115.5,-274 115.5,-274 115.5,-271 118.5,-268 121.5,-268 121.5,-268 163.5,-268 163.5,-268 166.5,-268 169.5,-271 169.5,-274 169.5,-274 169.5,-280 169.5,-280 169.5,-283 166.5,-286 163.5,-286"/>
<text text-anchor="middle" x="142.5" y="-274.8" font-family="Helvetica,sans-Serif" font-size="9.00" fill="#000000">log.js</text>
</a>
</g>
</g>
<!-- index.js&#45;&gt;lib/util/log.js -->
<g id="edge3" class="edge">
<title>index.js&#45;&gt;lib/util/log.js</title>
<path fill="none" stroke="#000000" stroke-width="2" stroke-opacity="0.200000" d="M54.0796,-277C70.4695,-277 91.5025,-277 108.9424,-277"/>
<polygon fill="#000000" fill-opacity="0.200000" stroke="#000000" stroke-width="2" stroke-opacity="0.200000" points="109.1899,-279.1001 115.1898,-277 109.1898,-274.9001 109.1899,-279.1001"/>
</g>
<!-- node_modules/fs&#45;extra/lib/index.js -->
<g id="node7" class="node">
<title>node_modules/fs&#45;extra/lib/index.js</title>
<g id="a_node7"><a xlink:href="node_modules/fs-extra/lib/index.js" xlink:title="index.js">
<path fill="#c40b0a" fill-opacity="0.101961" stroke="#000000" d="M163.5,-110C163.5,-110 121.5,-110 121.5,-110 118.5,-110 115.5,-107 115.5,-104 115.5,-104 115.5,-98 115.5,-98 115.5,-95 118.5,-92 121.5,-92 121.5,-92 163.5,-92 163.5,-92 166.5,-92 169.5,-95 169.5,-98 169.5,-98 169.5,-104 169.5,-104 169.5,-107 166.5,-110 163.5,-110"/>
<text text-anchor="middle" x="142.5" y="-98.8" font-family="Helvetica,sans-Serif" font-size="9.00" fill="#c40b0a">index.js</text>
</a>
</g>
</g>
<!-- index.js&#45;&gt;node_modules/fs&#45;extra/lib/index.js -->
<g id="edge5" class="edge">
<title>index.js&#45;&gt;node_modules/fs&#45;extra/lib/index.js</title>
<path fill="none" stroke="#000000" stroke-dasharray="5,2" stroke-opacity="0.200000" d="M29.6946,-267.9595C34.663,-252.0536 46.2199,-218.349 62,-193 81.1717,-162.2028 110.6299,-131.5168 128.0911,-114.5234"/>
<polygon fill="#000000" fill-opacity="0.200000" stroke="#000000" stroke-opacity="0.200000" points="129.8143,-115.7794 132.6794,-110.1047 126.9008,-112.7541 129.8143,-115.7794"/>
</g>
<!-- os -->
<g id="node8" class="node">
<title>os</title>
<path fill="#ffffcc" stroke="#c0c0c0" d="M163.5,-394C163.5,-394 121.5,-394 121.5,-394 118.5,-394 115.5,-391 115.5,-388 115.5,-388 115.5,-382 115.5,-382 115.5,-379 118.5,-376 121.5,-376 121.5,-376 163.5,-376 163.5,-376 166.5,-376 169.5,-379 169.5,-382 169.5,-382 169.5,-388 169.5,-388 169.5,-391 166.5,-394 163.5,-394"/>
<text text-anchor="middle" x="142.5" y="-382.8" font-family="Helvetica,sans-Serif" font-size="9.00" fill="#c0c0c0">os</text>
</g>
<!-- index.js&#45;&gt;os -->
<g id="edge7" class="edge">
<title>index.js&#45;&gt;os</title>
<path fill="none" stroke="#000000" stroke-dasharray="5,2" stroke-opacity="0.200000" d="M27.5697,-286.0639C29.2676,-304.8653 35.9528,-348.1702 62,-370 74.9855,-380.8829 93.3273,-384.8838 109.2238,-386.0519"/>
<polygon fill="#000000" fill-opacity="0.200000" stroke="#000000" stroke-opacity="0.200000" points="109.3048,-388.1589 115.4068,-386.3767 109.5252,-383.9647 109.3048,-388.1589"/>
</g>
<!-- path -->
<g id="node9" class="node">
<title>path</title>
<path fill="#ffffcc" stroke="#c0c0c0" d="M163.5,-364C163.5,-364 121.5,-364 121.5,-364 118.5,-364 115.5,-361 115.5,-358 115.5,-358 115.5,-352 115.5,-352 115.5,-349 118.5,-346 121.5,-346 121.5,-346 163.5,-346 163.5,-346 166.5,-346 169.5,-349 169.5,-352 169.5,-352 169.5,-358 169.5,-358 169.5,-361 166.5,-364 163.5,-364"/>
<text text-anchor="middle" x="142.5" y="-352.8" font-family="Helvetica,sans-Serif" font-size="9.00" fill="#c0c0c0">path</text>
</g>
<!-- index.js&#45;&gt;path -->
<g id="edge8" class="edge">
<title>index.js&#45;&gt;path</title>
<path fill="none" stroke="#000000" stroke-dasharray="5,2" stroke-opacity="0.200000" d="M33.7266,-286.0205C40.2603,-294.3277 50.8091,-306.6013 62,-315 77.5633,-326.6801 97.0629,-336.4715 112.9723,-343.4431"/>
<polygon fill="#000000" fill-opacity="0.200000" stroke="#000000" stroke-opacity="0.200000" points="112.3154,-345.4464 118.6573,-345.8823 113.9715,-341.5866 112.3154,-345.4464"/>
</g>
<!-- node_modules/syswide&#45;cas/index.js -->
<g id="node10" class="node">
<title>node_modules/syswide&#45;cas/index.js</title>
<g id="a_node10"><a xlink:href="node_modules/syswide-cas/index.js" xlink:title="index.js">
<path fill="#c40b0a" fill-opacity="0.101961" stroke="#000000" d="M163.5,-42C163.5,-42 121.5,-42 121.5,-42 118.5,-42 115.5,-39 115.5,-36 115.5,-36 115.5,-30 115.5,-30 115.5,-27 118.5,-24 121.5,-24 121.5,-24 163.5,-24 163.5,-24 166.5,-24 169.5,-27 169.5,-30 169.5,-30 169.5,-36 169.5,-36 169.5,-39 166.5,-42 163.5,-42"/>
<text text-anchor="middle" x="142.5" y="-30.8" font-family="Helvetica,sans-Serif" font-size="9.00" fill="#c40b0a">index.js</text>
</a>
</g>
</g>
<!-- index.js&#45;&gt;node_modules/syswide&#45;cas/index.js -->
<g id="edge9" class="edge">
<title>index.js&#45;&gt;node_modules/syswide&#45;cas/index.js</title>
<path fill="none" stroke="#000000" stroke-dasharray="5,2" stroke-opacity="0.200000" d="M27.6331,-267.8517C30.164,-233.4375 40.4751,-112.1334 62,-81 73.6392,-64.1652 93.2743,-52.2858 110.2382,-44.5563"/>
<polygon fill="#000000" fill-opacity="0.200000" stroke="#000000" stroke-opacity="0.200000" points="111.2169,-46.4205 115.8734,-42.093 109.5345,-42.5721 111.2169,-46.4205"/>
</g>
</g>
</svg>
