<?xml version="1.0" encoding="UTF-8" standalone="no"?>
<!DOCTYPE svg PUBLIC "-//W3C//DTD SVG 1.1//EN"
 "http://www.w3.org/Graphics/SVG/1.1/DTD/svg11.dtd">
<!-- Generated by graphviz version 2.40.1 (20161225.0304)
 -->
<!-- Title: dependency&#45;cruiser output Pages: 1 -->
<svg width="180pt" height="342pt"
 viewBox="0.00 0.00 180.00 342.00" xmlns="http://www.w3.org/2000/svg" xmlns:xlink="http://www.w3.org/1999/xlink">
<g id="graph0" class="graph" transform="scale(1 1) rotate(0) translate(4 338)">
<title>dependency&#45;cruiser output</title>
<polygon fill="#ffffff" stroke="transparent" points="-4,4 -4,-338 176,-338 176,4 -4,4"/>
<g id="clust1" class="cluster">
<title>cluster_lib</title>
<path fill="#ffffff" stroke="#000000" stroke-width="2" d="M82.5,-196C82.5,-196 143.5,-196 143.5,-196 149.5,-196 155.5,-202 155.5,-208 155.5,-208 155.5,-236 155.5,-236 155.5,-242 149.5,-248 143.5,-248 143.5,-248 82.5,-248 82.5,-248 76.5,-248 70.5,-242 70.5,-236 70.5,-236 70.5,-208 70.5,-208 70.5,-202 76.5,-196 82.5,-196"/>
<text text-anchor="middle" x="113" y="-236.8" font-family="Helvetica,sans-Serif" font-weight="bold" font-size="9.00" fill="#000000">lib</text>
</g>
<g id="clust2" class="cluster">
<title>cluster_node_modules</title>
<path fill="#ffffff" stroke="#000000" stroke-width="2" d="M74,-8C74,-8 152,-8 152,-8 158,-8 164,-14 164,-20 164,-20 164,-176 164,-176 164,-182 158,-188 152,-188 152,-188 74,-188 74,-188 68,-188 62,-182 62,-176 62,-176 62,-20 62,-20 62,-14 68,-8 74,-8"/>
<text text-anchor="middle" x="113" y="-176.8" font-family="Helvetica,sans-Serif" font-weight="bold" font-size="9.00" fill="#000000">node_modules</text>
</g>
<g id="clust3" class="cluster">
<title>cluster_node_modules/fs&#45;extra</title>
<path fill="#ffffff" stroke="#000000" stroke-width="2" d="M82,-76C82,-76 144,-76 144,-76 150,-76 156,-82 156,-88 156,-88 156,-150 156,-150 156,-156 150,-162 144,-162 144,-162 82,-162 82,-162 76,-162 70,-156 70,-150 70,-150 70,-88 70,-88 70,-82 76,-76 82,-76"/>
<text text-anchor="middle" x="113" y="-150.8" font-family="Helvetica,sans-Serif" font-weight="bold" font-size="9.00" fill="#000000">fs&#45;extra</text>
</g>
<g id="clust4" class="cluster">
<title>cluster_node_modules/fs&#45;extra/lib</title>
<path fill="#ffffff" stroke="#000000" stroke-width="2" d="M90,-84C90,-84 136,-84 136,-84 142,-84 148,-90 148,-96 148,-96 148,-124 148,-124 148,-130 142,-136 136,-136 136,-136 90,-136 90,-136 84,-136 78,-130 78,-124 78,-124 78,-96 78,-96 78,-90 84,-84 90,-84"/>
<text text-anchor="middle" x="113" y="-124.8" font-family="Helvetica,sans-Serif" font-weight="bold" font-size="9.00" fill="#000000">lib</text>
</g>
<g id="clust5" class="cluster">
<title>cluster_node_modules/syswide&#45;cas</title>
<path fill="#ffffff" stroke="#000000" stroke-width="2" d="M90,-16C90,-16 137,-16 137,-16 143,-16 149,-22 149,-28 149,-28 149,-56 149,-56 149,-62 143,-68 137,-68 137,-68 90,-68 90,-68 84,-68 78,-62 78,-56 78,-56 78,-28 78,-28 78,-22 84,-16 90,-16"/>
<text text-anchor="middle" x="113.5" y="-56.8" font-family="Helvetica,sans-Serif" font-weight="bold" font-size="9.00" fill="#000000">syswide&#45;cas</text>
</g>
<!-- https -->
<g id="node1" class="node">
<title>https</title>
<path fill="#ffffcc" stroke="#c0c0c0" d="M134,-334C134,-334 92,-334 92,-334 89,-334 86,-331 86,-328 86,-328 86,-322 86,-322 86,-319 89,-316 92,-316 92,-316 134,-316 134,-316 137,-316 140,-319 140,-322 140,-322 140,-328 140,-328 140,-331 137,-334 134,-334"/>
<text text-anchor="middle" x="113" y="-322.8" font-family="Helvetica,sans-Serif" font-size="9.00" fill="#c0c0c0">https</text>
</g>
<!-- index.js -->
<g id="node2" class="node">
<title>index.js</title>
<g id="a_node2"><a xlink:href="index.js" xlink:title="index.js">
<path fill="#ffffcc" stroke="#000000" d="M48,-248C48,-248 6,-248 6,-248 3,-248 0,-245 0,-242 0,-242 0,-236 0,-236 0,-233 3,-230 6,-230 6,-230 48,-230 48,-230 51,-230 54,-233 54,-236 54,-236 54,-242 54,-242 54,-245 51,-248 48,-248"/>
<text text-anchor="middle" x="27" y="-236.8" font-family="Helvetica,sans-Serif" font-size="9.00" fill="#000000">index.js</text>
</a>
</g>
</g>
<!-- index.js&#45;&gt;https -->
<g id="edge3" class="edge">
<title>index.js&#45;&gt;https</title>
<path fill="none" stroke="#000000" stroke-dasharray="5,2" stroke-opacity="0.200000" d="M29.0322,-248.3314C32.8269,-263.5203 42.4401,-293.5441 62,-310 67.1367,-314.3215 73.4714,-317.3983 79.9088,-319.5887"/>
<polygon fill="#000000" fill-opacity="0.200000" stroke="#000000" stroke-opacity="0.200000" points="79.4676,-321.6488 85.8181,-321.3614 80.6745,-317.6259 79.4676,-321.6488"/>
</g>
<!-- lib/HttpServer.js -->
<g id="node3" class="node">
<title>lib/HttpServer.js</title>
<g id="a_node3"><a xlink:href="lib/HttpServer.js" xlink:title="HttpServer.js">
<path fill="#ffffcc" stroke="#000000" d="M141.5,-222C141.5,-222 84.5,-222 84.5,-222 81.5,-222 78.5,-219 78.5,-216 78.5,-216 78.5,-210 78.5,-210 78.5,-207 81.5,-204 84.5,-204 84.5,-204 141.5,-204 141.5,-204 144.5,-204 147.5,-207 147.5,-210 147.5,-210 147.5,-216 147.5,-216 147.5,-219 144.5,-222 141.5,-222"/>
<text text-anchor="middle" x="113" y="-210.8" font-family="Helvetica,sans-Serif" font-size="9.00" fill="#000000">HttpServer.js</text>
</a>
</g>
</g>
<!-- index.js&#45;&gt;lib/HttpServer.js -->
<g id="edge1" class="edge">
<title>index.js&#45;&gt;lib/HttpServer.js</title>
<path fill="none" stroke="#000000" stroke-width="2" stroke-opacity="0.200000" d="M54.2109,-230.7734C61.5047,-228.5683 69.5023,-226.1505 77.185,-223.8278"/>
<polygon fill="#000000" fill-opacity="0.200000" stroke="#000000" stroke-width="2" stroke-opacity="0.200000" points="77.8462,-225.8218 82.9818,-222.0753 76.6307,-221.8015 77.8462,-225.8218"/>
</g>
<!-- node_modules/fs&#45;extra/lib/index.js -->
<g id="node4" class="node">
<title>node_modules/fs&#45;extra/lib/index.js</title>
<g id="a_node4"><a xlink:href="node_modules/fs-extra/lib/index.js" xlink:title="index.js">
<path fill="#c40b0a" fill-opacity="0.101961" stroke="#000000" d="M134,-110C134,-110 92,-110 92,-110 89,-110 86,-107 86,-104 86,-104 86,-98 86,-98 86,-95 89,-92 92,-92 92,-92 134,-92 134,-92 137,-92 140,-95 140,-98 140,-98 140,-104 140,-104 140,-107 137,-110 134,-110"/>
<text text-anchor="middle" x="113" y="-98.8" font-family="Helvetica,sans-Serif" font-size="9.00" fill="#c40b0a">index.js</text>
</a>
</g>
</g>
<!-- index.js&#45;&gt;node_modules/fs&#45;extra/lib/index.js -->
<g id="edge2" class="edge">
<title>index.js&#45;&gt;node_modules/fs&#45;extra/lib/index.js</title>
<path fill="none" stroke="#000000" stroke-opacity="0.200000" d="M32.6427,-229.9454C47.2164,-206.5597 86.2125,-143.9845 103.9692,-115.4914"/>
<polygon fill="#000000" fill-opacity="0.200000" stroke="#000000" stroke-opacity="0.200000" points="105.8326,-116.4717 107.2238,-110.2689 102.2681,-114.2503 105.8326,-116.4717"/>
</g>
<!-- os -->
<g id="node5" class="node">
<title>os</title>
<path fill="#ffffcc" stroke="#c0c0c0" d="M134,-304C134,-304 92,-304 92,-304 89,-304 86,-301 86,-298 86,-298 86,-292 86,-292 86,-289 89,-286 92,-286 92,-286 134,-286 134,-286 137,-286 140,-289 140,-292 140,-292 140,-298 140,-298 140,-301 137,-304 134,-304"/>
<text text-anchor="middle" x="113" y="-292.8" font-family="Helvetica,sans-Serif" font-size="9.00" fill="#c0c0c0">os</text>
</g>
<!-- index.js&#45;&gt;os -->
<g id="edge4" class="edge">
<title>index.js&#45;&gt;os</title>
<path fill="none" stroke="#000000" stroke-dasharray="5,2" stroke-opacity="0.200000" d="M32.5454,-248.1885C38.6412,-257.5252 49.2776,-271.7532 62,-280 67.455,-283.536 73.7692,-286.2618 80.0567,-288.3554"/>
<polygon fill="#000000" fill-opacity="0.200000" stroke="#000000" stroke-opacity="0.200000" points="79.4464,-290.3647 85.7981,-290.1056 80.6711,-286.3473 79.4464,-290.3647"/>
</g>
<!-- path -->
<g id="node6" class="node">
<title>path</title>
<path fill="#ffffcc" stroke="#c0c0c0" d="M134,-274C134,-274 92,-274 92,-274 89,-274 86,-271 86,-268 86,-268 86,-262 86,-262 86,-259 89,-256 92,-256 92,-256 134,-256 134,-256 137,-256 140,-259 140,-262 140,-262 140,-268 140,-268 140,-271 137,-274 134,-274"/>
<text text-anchor="middle" x="113" y="-262.8" font-family="Helvetica,sans-Serif" font-size="9.00" fill="#c0c0c0">path</text>
</g>
<!-- index.js&#45;&gt;path -->
<g id="edge5" class="edge">
<title>index.js&#45;&gt;path</title>
<path fill="none" stroke="#000000" stroke-dasharray="5,2" stroke-opacity="0.200000" d="M52.9347,-248.0932C55.9816,-249.1017 59.0536,-250.0915 62,-251 67.7909,-252.7856 73.9857,-254.5811 79.9912,-256.2626"/>
<polygon fill="#000000" fill-opacity="0.200000" stroke="#000000" stroke-opacity="0.200000" points="79.5688,-258.3246 85.9117,-257.9016 80.6894,-254.2769 79.5688,-258.3246"/>
</g>
<!-- node_modules/syswide&#45;cas/index.js -->
<g id="node7" class="node">
<title>node_modules/syswide&#45;cas/index.js</title>
<g id="a_node7"><a xlink:href="node_modules/syswide-cas/index.js" xlink:title="index.js">
<path fill="#c40b0a" fill-opacity="0.101961" stroke="#000000" d="M134,-42C134,-42 92,-42 92,-42 89,-42 86,-39 86,-36 86,-36 86,-30 86,-30 86,-27 89,-24 92,-24 92,-24 134,-24 134,-24 137,-24 140,-27 140,-30 140,-30 140,-36 140,-36 140,-39 137,-42 134,-42"/>
<text text-anchor="middle" x="113" y="-30.8" font-family="Helvetica,sans-Serif" font-size="9.00" fill="#c40b0a">index.js</text>
</a>
</g>
</g>
<!-- index.js&#45;&gt;node_modules/syswide&#45;cas/index.js -->
<g id="edge6" class="edge">
<title>index.js&#45;&gt;node_modules/syswide&#45;cas/index.js</title>
<path fill="none" stroke="#000000" stroke-opacity="0.200000" d="M28.3176,-229.7475C32.668,-199.9848 47.1451,-107.1355 62,-81 70.0238,-66.883 83.5551,-54.4322 94.6641,-45.7509"/>
<polygon fill="#000000" fill-opacity="0.200000" stroke="#000000" stroke-opacity="0.200000" points="96.0547,-47.3321 99.5693,-42.0351 93.5186,-43.9842 96.0547,-47.3321"/>
</g>
</g>
</svg>
